<svg width="200" height="100" viewBox="0 0 230 100" fill="none" xmlns="http://www.w3.org/2000/svg">
<!-- <path d="M34.1305 67.6806C36.4372 65.3739 39.6428 64.8396 41.2905 66.4872C42.9381 68.1349 42.4039 71.3405 40.0971 73.6472C37.7904 75.954 23.9871 83.7906 23.9871 83.7906C23.9871 83.7906 31.8238 69.9873 34.1305 67.6806Z" fill="#F17F00"/> -->
<path d="M37.4124 39.9359C38.8953 41.4188 41.2995 41.4188 42.7824 39.9359C44.2653 38.453 44.2653 36.0488 42.7824 34.5659C41.2995 33.083 38.8953 33.083 37.4124 34.5659C35.9295 36.0488 35.9295 38.453 37.4124 39.9359Z" fill="#FFB400"/>
<path d="M52.9258 55.449C54.4087 56.9319 56.813 56.9319 58.2958 55.449C59.7787 53.9661 59.7787 51.5619 58.2958 50.079C56.813 48.5961 54.4087 48.5961 52.9258 50.079C51.4429 51.5619 51.443 53.9661 52.9258 55.449Z" fill="#FFB400"/>
<path d="M76.1961 32.179C77.679 33.6619 80.0832 33.6619 81.5661 32.179C83.049 30.6961 83.049 28.2919 81.5661 26.809C80.0832 25.3261 77.679 25.3261 76.1961 26.809C74.7132 28.2919 74.7132 30.6961 76.1961 32.179Z" fill="#FFB400"/>
<path d="M35.6224 59.6258C37.1053 61.1087 39.5095 61.1087 40.9924 59.6258C42.4753 58.1429 42.4753 55.7387 40.9924 54.2558C39.5095 52.7729 37.1053 52.7729 35.6224 54.2558C34.1395 55.7387 34.1395 58.1429 35.6224 59.6258Z" fill="#FFB400"/>
<path d="M67.8428 70.366C69.3257 71.8489 71.7299 71.8489 73.2128 70.366C74.6957 68.8831 74.6957 66.4789 73.2128 64.996C71.73 63.5131 69.3257 63.5131 67.8428 64.996C66.3599 66.4789 66.3599 68.8831 67.8428 70.366Z" fill="#FFB400"/>
<!-- <path d="M48.1529 72.1561C49.6358 73.639 52.04 73.639 53.5229 72.1561C55.0058 70.6732 55.0058 68.269 53.5229 66.7861C52.04 65.3032 49.6358 65.3032 48.1529 66.7861C46.67 68.269 46.67 70.6732 48.1529 72.1561Z" fill="#FFD85A"/> -->
<text x="100" y="62" font-family="Verdana" font-size="35" fill="white">Boost</text>
</svg>

